<svg width="18" height="18" viewBox="0 0 18 18" fill="none" xmlns="http://www.w3.org/2000/svg">
<path d="M17.1181 9.05112C17.1184 7.44576 16.6742 5.87392 15.838 4.52172C15.0018 3.16951 13.8087 2.09357 12.3999 1.4213C10.991 0.749034 9.42555 0.508589 7.88877 0.728439C6.35199 0.948288 4.90827 1.61922 3.72856 2.6618C2.54886 3.70438 1.68257 5.07494 1.23227 6.61119C0.781978 8.14744 0.766536 9.78504 1.18778 11.3301C1.60902 12.8751 2.4493 14.2629 3.60912 15.3291C4.76894 16.3953 6.19973 17.0953 7.73208 17.3461V11.4787H5.67121V9.05112H7.73208V7.19997C7.6877 6.76784 7.73573 6.3309 7.87274 5.92012C8.00976 5.50934 8.23241 5.13477 8.52493 4.82297C8.81744 4.51116 9.17266 4.26975 9.56539 4.11584C9.95813 3.96193 10.3788 3.8993 10.7975 3.93237C11.4064 3.94065 12.0138 3.9954 12.6148 4.09617V6.16572H11.592C11.4178 6.14215 11.2407 6.15941 11.0737 6.21625C10.9068 6.27308 10.7544 6.36802 10.6277 6.49405C10.5011 6.62007 10.4034 6.77396 10.342 6.94432C10.2806 7.11468 10.257 7.29714 10.2729 7.47822V9.05322H12.5245L12.1643 11.4808H10.2688V17.3514C12.1788 17.0387 13.9181 16.0309 15.1737 14.5092C16.4294 12.9875 17.1189 11.052 17.1181 9.05112Z" fill="#000000"/>
</svg>
