<svg width="17" height="18" viewBox="0 0 17 18" fill="none" xmlns="http://www.w3.org/2000/svg">
<path d="M12.9121 5.745C13.4501 5.745 13.8862 5.29371 13.8862 4.737C13.8862 4.1803 13.4501 3.729 12.9121 3.729C12.3741 3.729 11.938 4.1803 11.938 4.737C11.938 5.29371 12.3741 5.745 12.9121 5.745Z" fill="#F3F4F8"/>
<path d="M8.7058 13.2504C6.46736 13.2504 4.64697 11.3667 4.64697 9.0504C4.64697 6.7341 6.46736 4.8504 8.7058 4.8504C10.9442 4.8504 12.7646 6.7341 12.7646 9.0504C12.7646 11.3667 10.9442 13.2504 8.7058 13.2504ZM8.7058 6.9504C7.58658 6.9504 6.67638 7.89225 6.67638 9.0504C6.67638 10.2086 7.58658 11.1504 8.7058 11.1504C9.82502 11.1504 10.7352 10.2086 10.7352 9.0504C10.7352 7.89225 9.82502 6.9504 8.7058 6.9504Z" fill="#F3F4F8"/>
<path d="M12.7648 17.4504H4.6472C2.56097 17.4504 0.588379 15.4092 0.588379 13.2504V4.85039C0.588379 2.69159 2.56097 0.650391 4.6472 0.650391H12.7648C14.8511 0.650391 16.8237 2.69159 16.8237 4.85039V13.2504C16.8237 15.4092 14.8511 17.4504 12.7648 17.4504ZM4.6472 2.75039C3.69845 2.75039 2.61779 3.86864 2.61779 4.85039V13.2504C2.61779 14.251 3.68019 15.3504 4.6472 15.3504H12.7648C13.7136 15.3504 14.7943 14.2321 14.7943 13.2504V4.85039C14.7943 3.86864 13.7136 2.75039 12.7648 2.75039H4.6472Z" fill="#F3F4F8"/>
</svg>
