<svg width="17" height="15" viewBox="0 0 17 15" fill="none" xmlns="http://www.w3.org/2000/svg">
<path d="M16.4121 2.2752C15.8032 2.5902 15.1944 2.6952 14.4841 2.8002C15.1944 2.3802 15.7018 1.7502 15.9047 0.910195C15.2959 1.3302 14.5856 1.5402 13.7738 1.7502C13.165 1.1202 12.2518 0.700195 11.3385 0.700195C9.61352 0.700195 8.09146 2.2752 8.09146 4.1652C8.09146 4.4802 8.09146 4.6902 8.19293 4.9002C5.45323 4.7952 2.91646 3.4302 1.29293 1.3302C0.988523 1.8552 0.887052 2.3802 0.887052 3.1152C0.887052 4.2702 1.49588 5.3202 2.40911 5.9502C1.90176 5.9502 1.3944 5.74019 0.887052 5.53019C0.887052 7.2102 2.00323 8.5752 3.52529 8.89019C3.22088 8.9952 2.91646 8.99519 2.61205 8.99519C2.40911 8.99519 2.20617 8.9952 2.00323 8.89019C2.40911 10.2552 3.62676 11.3052 5.14882 11.3052C4.03264 12.2502 2.61205 12.7752 0.988523 12.7752C0.684111 12.7752 0.48117 12.7752 0.176758 12.7752C1.69882 13.7202 3.42382 14.3502 5.25029 14.3502C11.3385 14.3502 14.6871 9.10019 14.6871 4.58519C14.6871 4.4802 14.6871 4.2702 14.6871 4.1652C15.3973 3.6402 16.0062 3.0102 16.4121 2.2752Z" fill="#000000"/>
</svg>
